<?xml version="1.0" standalone="no"?>
<!DOCTYPE svg PUBLIC "-//W3C//DTD SVG 20010904//EN"
 "http://www.w3.org/TR/2001/REC-SVG-20010904/DTD/svg10.dtd">
<svg version="1.0" xmlns="http://www.w3.org/2000/svg"
 width="500.000000pt" height="500.000000pt" viewBox="0 0 500.000000 500.000000"
 preserveAspectRatio="xMidYMid meet">

<g transform="translate(0.000000,500.000000) scale(0.100000,-0.100000)"
fill="#000000" stroke="none">
<path d="M2124 3065 c-17 -41 -18 -62 -3 -104 12 -34 42 -47 84 -37 21 5 25
12 25 46 0 33 -3 40 -20 40 -11 0 -20 -4 -20 -10 0 -5 7 -10 15 -10 22 0 18
-37 -4 -50 -39 -20 -71 12 -71 73 0 73 66 102 89 39 l9 -27 1 26 c1 34 -16 49
-57 49 -28 0 -35 -5 -48 -35z"/>
<path d="M2316 3078 c-9 -12 -16 -43 -16 -68 0 -58 22 -90 60 -90 38 0 60 32
60 90 0 58 -22 90 -60 90 -18 0 -34 -8 -44 -22z m72 0 c7 -7 12 -38 12 -70 0
-47 -4 -59 -20 -68 -14 -8 -26 -8 -40 0 -16 9 -20 21 -20 68 0 59 11 82 40 82
9 0 21 -5 28 -12z"/>
<path d="M2492 3008 l2 -93 5 75 6 75 25 -73 c13 -40 28 -71 34 -69 5 2 20 32
32 68 l22 64 1 -67 c1 -38 5 -68 11 -68 6 0 10 37 10 90 0 113 -17 120 -49 19
-12 -39 -26 -68 -29 -64 -4 3 -16 34 -28 68 -31 93 -44 86 -42 -25z"/>
<path d="M2710 3010 l0 -90 52 0 c52 0 60 13 10 16 -49 2 -52 4 -52 34 0 28 3
30 34 30 19 0 38 5 41 10 4 6 -10 10 -35 10 -41 0 -41 1 -38 33 3 30 6 32 48
38 l45 6 -52 1 -53 2 0 -90z"/>
<path d="M2882 3088 c-16 -16 -15 -53 1 -65 6 -6 26 -15 42 -20 34 -11 44 -43
20 -63 -19 -16 -65 1 -65 25 0 8 -4 15 -10 15 -14 0 -12 -12 6 -38 27 -39 104
-23 104 23 0 25 -33 55 -61 55 -26 0 -45 28 -32 48 15 25 56 21 68 -5 11 -26
25 -30 25 -9 0 38 -70 62 -98 34z"/>
<path d="M2794 2590 c-55 -12 -94 -43 -119 -94 -74 -149 31 -304 191 -280 94
14 148 82 148 188 -1 70 -18 111 -64 150 -41 34 -103 49 -156 36z m103 -94
c25 -22 28 -30 28 -89 0 -84 -25 -117 -91 -117 -35 0 -47 5 -68 31 -21 25 -26
41 -26 86 0 47 4 59 29 84 38 37 88 39 128 5z"/>
<path d="M4185 2590 c-70 -15 -95 -43 -95 -107 0 -47 32 -81 100 -107 56 -22
70 -33 70 -57 0 -37 -53 -46 -136 -23 -15 4 -23 -1 -32 -21 -16 -35 -11 -41
49 -55 52 -13 110 -8 153 11 34 16 59 70 51 113 -9 44 -36 69 -110 98 -50 20
-60 28 -60 49 0 23 2 24 67 23 65 -1 68 0 77 28 6 17 6 30 0 33 -18 12 -104
21 -134 15z"/>
<path d="M973 2583 c-10 -3 -13 -50 -13 -184 l0 -179 92 0 c141 0 204 41 223
143 18 93 -21 172 -100 208 -38 18 -170 26 -202 12z m194 -97 c18 -21 23 -39
23 -82 0 -48 -4 -60 -29 -85 -24 -24 -38 -29 -75 -29 l-46 0 0 116 0 117 52
-5 c40 -4 57 -11 75 -32z"/>
<path d="M1350 2405 l0 -185 130 0 130 0 0 35 0 35 -90 0 -90 0 0 45 0 45 76
0 75 0 -3 33 -3 32 -72 3 -73 3 0 34 0 35 84 0 84 0 -1 33 -2 32 -122 3 -123
3 0 -186z"/>
<path d="M1630 2585 c0 -4 32 -87 71 -186 l71 -179 43 0 43 0 45 108 c41 98
97 247 97 258 0 2 -19 4 -43 4 l-42 0 -33 -98 c-18 -53 -41 -115 -51 -136
l-17 -40 -45 135 -46 134 -47 3 c-25 2 -46 0 -46 -3z"/>
<path d="M2050 2405 l0 -185 130 0 130 0 0 35 0 35 -90 0 -90 0 0 45 0 45 76
0 75 0 -3 33 -3 32 -72 3 -73 3 0 34 0 35 85 0 85 0 0 35 0 35 -125 0 -125 0
0 -185z"/>
<path d="M2370 2405 l0 -185 119 0 c116 0 119 1 123 23 8 43 0 47 -83 47 l-79
0 0 150 0 150 -40 0 -40 0 0 -185z"/>
<path d="M3103 2583 c-10 -3 -13 -50 -13 -184 l0 -179 40 0 40 0 0 59 0 58 52
7 c81 11 117 30 134 72 30 72 -3 143 -77 164 -35 10 -154 12 -176 3z m158 -73
c22 -12 26 -62 6 -78 -7 -6 -32 -14 -55 -18 l-42 -7 0 57 0 56 36 0 c19 0 44
-5 55 -10z"/>
<path d="M3430 2405 l0 -185 130 0 130 0 0 35 0 35 -90 0 -90 0 0 45 0 45 76
0 75 0 -3 33 -3 32 -72 3 -73 3 0 34 0 35 84 0 84 0 -1 33 -2 32 -122 3 -123
3 0 -186z"/>
<path d="M3763 2583 c-10 -3 -13 -50 -13 -184 l0 -179 40 0 40 0 0 65 c0 61 1
65 23 65 16 0 32 -14 55 -50 18 -27 35 -56 38 -65 7 -17 94 -22 94 -5 0 5 -18
38 -39 73 l-39 64 29 27 c58 55 35 154 -42 182 -33 12 -162 17 -186 7z m145
-69 c13 -4 25 -17 29 -32 8 -33 -26 -62 -73 -62 l-34 0 0 50 c0 48 1 50 28 50
15 0 37 -3 50 -6z"/>
<path d="M2417 2054 c-4 -4 -7 -56 -7 -116 l0 -108 235 0 236 0 -3 113 -3 112
-226 3 c-124 1 -228 -1 -232 -4z"/>
<path d="M2440 1732 c-30 -5 -40 -18 -40 -52 l0 -25 13 25 c9 18 21 25 42 26
17 0 39 5 49 11 17 9 16 11 -10 14 -16 2 -40 3 -54 1z"/>
<path d="M2598 1732 c-26 -3 -41 -22 -18 -22 15 0 12 -16 -9 -63 -10 -23 -21
-62 -25 -87 l-7 -45 23 32 c20 29 38 37 66 31 11 -2 3 -33 -23 -83 l-24 -45
53 0 c51 0 53 1 48 25 -2 14 -8 28 -13 31 -13 8 -11 54 2 54 6 0 25 -10 41
-22 l30 -21 -6 98 c-3 54 -9 102 -13 106 -10 8 -87 15 -125 11z"/>
<path d="M2865 1730 c-10 -4 -7 -14 13 -44 15 -22 31 -38 36 -35 16 8 47 -72
53 -136 4 -45 10 -65 19 -65 11 0 14 28 13 139 l0 139 -60 4 c-33 1 -66 1 -74
-2z"/>
<path d="M2279 1705 c0 -14 0 -68 0 -120 0 -140 -1 -135 21 -135 17 0 20 7 21
53 1 28 1 56 0 60 -1 8 24 123 34 155 3 8 -8 12 -35 12 -36 0 -40 -3 -41 -25z"/>
<path d="M2779 1703 c8 -30 51 -66 51 -42 0 8 -7 23 -15 33 -8 10 -12 23 -9
27 3 5 -4 9 -15 9 -16 0 -18 -4 -12 -27z"/>
</g>
</svg>
